<?xml version="1.0" encoding="UTF-8" standalone="no"?>
<!-- Created with Inkscape (http://www.inkscape.org/) -->

<svg
   width="42.606739mm"
   height="41.554672mm"
   viewBox="0 0 42.606739 41.554672"
   version="1.1"
   id="svg1235"
   xmlns="http://www.w3.org/2000/svg"
   xmlns:svg="http://www.w3.org/2000/svg">
  <defs
     id="defs1232" />
  <g
     id="layer1"
     transform="translate(-62.444911,-49.080988)">
    <path
       d="m 83.748457,49.080988 c -11.764082,0 -21.303546,9.537348 -21.303546,21.303194 0,9.412464 6.104114,17.397942 14.568665,20.214944 1.064683,0.197167 1.455561,-0.46221 1.455561,-1.024891 0,-0.508 -0.01976,-2.186164 -0.02893,-3.96628 -5.926667,1.288697 -7.177264,-2.513542 -7.177264,-2.513542 -0.969081,-2.462389 -2.365375,-3.117145 -2.365375,-3.117145 -1.93287,-1.322211 0.145697,-1.295047 0.145697,-1.295047 2.139244,0.14993 3.265664,2.195336 3.265664,2.195336 1.900061,3.256845 4.983692,2.315281 6.199364,1.770945 0.191206,-1.376539 0.743303,-2.317045 1.35255,-2.848681 -4.731808,-0.538692 -9.705975,-2.365375 -9.705975,-10.528301 0,-2.325864 0.832203,-4.226278 2.194983,-5.718175 -0.221191,-0.536928 -0.950383,-2.703336 0.206375,-5.637742 0,0 1.788936,-0.572558 5.859992,2.183695 1.699331,-0.472017 3.521781,-0.708731 5.332237,-0.716845 1.810455,0.0081 3.634317,0.244828 5.336822,0.716845 4.066117,-2.756253 5.852584,-2.183695 5.852584,-2.183695 1.159581,2.934406 0.430036,5.100814 0.208844,5.637742 1.365956,1.491897 2.192514,3.392311 2.192514,5.718175 0,8.182329 -4.983692,9.983965 -9.727495,10.511368 0.764117,0.661105 1.444978,1.957564 1.444978,3.945114 0,2.850092 -0.02469,5.144206 -0.02469,5.846233 0,0.566914 0.383469,1.23116 1.463322,1.021998 8.459965,-2.820106 14.556316,-10.802762 14.556316,-20.212051 0,-11.765846 -9.538052,-21.303194 -21.303191,-21.303194"
       style="fill:#ffffff;fill-opacity:1;fill-rule:evenodd;stroke:none;stroke-width:0.0352778"
       id="path944" />
    <path
       d="m 70.513645,79.667882 c -0.04692,0.106186 -0.213431,0.137583 -0.365125,0.06491 -0.154517,-0.0695 -0.2413,-0.213783 -0.191206,-0.319969 0.04586,-0.109009 0.212725,-0.138995 0.366889,-0.06668 0.15487,0.06985 0.243064,0.215547 0.189442,0.321733 v 0"
       style="fill:#ffffff;fill-opacity:1;fill-rule:nonzero;stroke:none;stroke-width:0.0352778"
       id="path946" />
    <path
       d="m 71.376539,80.63026 c -0.1016,0.09419 -0.300214,0.05045 -0.434975,-0.09843 -0.139347,-0.14852 -0.165453,-0.347133 -0.06244,-0.442736 0.104775,-0.09419 0.297391,-0.05009 0.437091,0.09842 0.139347,0.150283 0.166511,0.347486 0.06032,0.442736 v 0"
       style="fill:#ffffff;fill-opacity:1;fill-rule:nonzero;stroke:none;stroke-width:0.0352778"
       id="path948" />
    <path
       d="m 72.216503,81.857221 c -0.130528,0.09066 -0.343958,0.0056 -0.475897,-0.183797 -0.130528,-0.189442 -0.130528,-0.416631 0.0028,-0.507647 0.132292,-0.09102 0.342547,-0.0092 0.47625,0.178858 0.130175,0.192264 0.130175,0.419806 -0.0032,0.512586 v 0"
       style="fill:#ffffff;fill-opacity:1;fill-rule:nonzero;stroke:none;stroke-width:0.0352778"
       id="path950" />
    <path
       d="m 73.367264,83.042555 c -0.116769,0.128763 -0.365477,0.09419 -0.547511,-0.08149 -0.186266,-0.171803 -0.238125,-0.415572 -0.121003,-0.544336 0.118181,-0.129117 0.3683,-0.09278 0.551745,0.08149 0.184855,0.17145 0.2413,0.416984 0.116769,0.544337 v 0"
       style="fill:#ffffff;fill-opacity:1;fill-rule:nonzero;stroke:none;stroke-width:0.0352778"
       id="path952" />
    <path
       d="m 74.954764,83.730824 c -0.0515,0.166864 -0.291041,0.242711 -0.532341,0.171803 -0.240947,-0.07303 -0.398639,-0.268464 -0.349956,-0.437092 0.05009,-0.167922 0.290689,-0.246944 0.533753,-0.171097 0.240594,0.07267 0.398639,0.2667 0.348544,0.436386 v 0"
       style="fill:#ffffff;fill-opacity:1;fill-rule:nonzero;stroke:none;stroke-width:0.0352778"
       id="path954" />
    <path
       d="m 76.698192,83.85853 c 0.006,0.175683 -0.198614,0.32138 -0.451908,0.324202 -0.254706,0.006 -0.460728,-0.136172 -0.46355,-0.309033 0,-0.177447 0.200025,-0.321733 0.454731,-0.325967 0.253294,-0.0049 0.460727,0.136173 0.460727,0.310798 v 0"
       style="fill:#ffffff;fill-opacity:1;fill-rule:nonzero;stroke:none;stroke-width:0.0352778"
       id="path956" />
    <path
       d="m 78.320617,83.582305 c 0.03034,0.17145 -0.145697,0.347486 -0.397227,0.394052 -0.247298,0.04551 -0.47625,-0.06032 -0.507648,-0.230364 -0.03069,-0.175683 0.14852,-0.351719 0.395464,-0.397227 0.251884,-0.04375 0.477309,0.05927 0.509411,0.233539 v 0"
       style="fill:#ffffff;fill-opacity:1;fill-rule:nonzero;stroke:none;stroke-width:0.0352778"
       id="path958" />
  </g>
</svg>
