<?xml version="1.0" encoding="UTF-8" standalone="no"?>
<!-- Created with Inkscape (http://www.inkscape.org/) -->

<svg
   version="1.1"
   id="svg2"
   xml:space="preserve"
   width="30.786934"
   height="34.294266"
   viewBox="0 0 30.786934 34.294266"
   xmlns="http://www.w3.org/2000/svg"
   xmlns:svg="http://www.w3.org/2000/svg"><defs
     id="defs6"><clipPath
       clipPathUnits="userSpaceOnUse"
       id="clipPath54"><path
         d="m 205.098,176.105 -0.743,0.711 c -2.91,3.079 -4.628,7.86 -4.628,14.051 v -1.457 0 221.16 c 0,0.02 0,0.035 0,0.051 0,-0.019 0,-0.035 0,-0.055 v -1.461 c 0,6.704 2.003,11.754 5.359,14.782 L 328.984,299.992 205.098,176.105 m -5.371,234.528 c 0,0.551 0.015,1.086 0.043,1.613 -0.028,-0.523 -0.043,-1.062 -0.043,-1.613 m 0.043,1.637 c 0,0.007 0,0.015 0.003,0.023 -0.003,-0.008 -0.003,-0.016 -0.003,-0.023 m 0.003,0.07 c 0,0.004 0,0.008 0,0.012 0,-0.004 0,-0.008 0,-0.012"
         id="path52" /></clipPath><linearGradient
       x1="0"
       y1="0"
       x2="1"
       y2="0"
       gradientUnits="userSpaceOnUse"
       gradientTransform="matrix(-167.825,-167.825,167.825,-167.825,317.998,412.903)"
       spreadMethod="pad"
       id="linearGradient68"><stop
         style="stop-opacity:1;stop-color:#00a0ff"
         offset="0"
         id="stop56" /><stop
         style="stop-opacity:1;stop-color:#00a1ff"
         offset="0.00657445"
         id="stop58" /><stop
         style="stop-opacity:1;stop-color:#00beff"
         offset="0.2601"
         id="stop60" /><stop
         style="stop-opacity:1;stop-color:#00d2ff"
         offset="0.5122"
         id="stop62" /><stop
         style="stop-opacity:1;stop-color:#00dfff"
         offset="0.7604"
         id="stop64" /><stop
         style="stop-opacity:1;stop-color:#00e3ff"
         offset="1"
         id="stop66" /></linearGradient><clipPath
       clipPathUnits="userSpaceOnUse"
       id="clipPath78"><path
         d="m 370.277,257.215 v 0 l 0.942,0.535 48.929,27.801 c 4.665,2.652 7.774,5.867 9.325,9.269 -1.547,-3.402 -4.657,-6.621 -9.325,-9.273 l -48.929,-27.801 -0.942,-0.531 m 0.012,1.465 -41.305,41.312 41.301,41.305 49.863,-28.328 c 6.332,-3.598 9.887,-8.235 10.481,-12.973 0,-0.004 0,-0.012 0,-0.019 -0.594,-4.727 -4.149,-9.368 -10.481,-12.965 L 370.289,258.68"
         id="path76" /></clipPath><linearGradient
       x1="0"
       y1="0"
       x2="1"
       y2="0"
       gradientUnits="userSpaceOnUse"
       gradientTransform="matrix(-241.97,0,0,-241.97,438.344,299.986)"
       spreadMethod="pad"
       id="linearGradient88"><stop
         style="stop-opacity:1;stop-color:#ffe000"
         offset="0"
         id="stop80" /><stop
         style="stop-opacity:1;stop-color:#ffbd00"
         offset="0.4087"
         id="stop82" /><stop
         style="stop-opacity:1;stop-color:#ffa500"
         offset="0.7754"
         id="stop84" /><stop
         style="stop-opacity:1;stop-color:#ff9c00"
         offset="1"
         id="stop86" /></linearGradient><clipPath
       clipPathUnits="userSpaceOnUse"
       id="clipPath98"><path
         d="m 213.93,171.387 c -3.461,0 -6.481,1.125 -8.836,3.25 l 0.004,0.004 c 2.355,-2.125 5.379,-3.254 8.84,-3.254 0.3,0 0.605,0.008 0.914,0.023 -0.313,-0.015 -0.622,-0.023 -0.922,-0.023 m 0.004,1.465 c -3.461,-0.004 -6.481,1.125 -8.836,3.25 v 0 0.003 l 123.886,123.887 41.305,-41.312 v 0 L 225.137,176.207 c -4.016,-2.277 -7.821,-3.355 -11.203,-3.355 m -8.871,1.812 c -0.219,0.199 -0.434,0.41 -0.645,0.629 l 0.645,-0.629"
         id="path96" /></clipPath><linearGradient
       x1="0"
       y1="0"
       x2="1"
       y2="0"
       gradientUnits="userSpaceOnUse"
       gradientTransform="matrix(-227.583,-227.583,227.583,-227.583,348.27,277.039)"
       spreadMethod="pad"
       id="linearGradient104"><stop
         style="stop-opacity:1;stop-color:#ff3a44"
         offset="0"
         id="stop100" /><stop
         style="stop-opacity:1;stop-color:#c31162"
         offset="1"
         id="stop102" /></linearGradient><clipPath
       clipPathUnits="userSpaceOnUse"
       id="clipPath114"><path
         d="m 328.984,299.992 v 0 L 205.086,423.887 c 2.355,2.121 5.371,3.246 8.828,3.246 3.391,0 7.199,-1.082 11.223,-3.363 l 145.148,-82.473 -41.301,-41.305 m 42.235,42.238 -146.082,83 c -4.024,2.282 -7.832,3.364 -11.223,3.364 -0.016,0 -0.027,0 -0.043,0 0.02,0 0.035,0 0.059,0 3.383,0 7.187,-1.078 11.207,-3.36 L 371.219,342.23 M 213.84,428.594 v 0 0"
         id="path112" /></clipPath><linearGradient
       x1="0"
       y1="0"
       x2="1"
       y2="0"
       gradientUnits="userSpaceOnUse"
       gradientTransform="matrix(101.625,-101.625,101.625,101.625,172.973,498.238)"
       spreadMethod="pad"
       id="linearGradient126"><stop
         style="stop-opacity:1;stop-color:#32a071"
         offset="0"
         id="stop116" /><stop
         style="stop-opacity:1;stop-color:#2da771"
         offset="0.0685"
         id="stop118" /><stop
         style="stop-opacity:1;stop-color:#15cf74"
         offset="0.4762"
         id="stop120" /><stop
         style="stop-opacity:1;stop-color:#06e775"
         offset="0.8009"
         id="stop122" /><stop
         style="stop-opacity:1;stop-color:#00f076"
         offset="1"
         id="stop124" /></linearGradient><clipPath
       clipPathUnits="userSpaceOnUse"
       id="clipPath138"><path
         d="m 370.277,257.215 v 0 l 0.942,0.535 -0.942,-0.535"
         id="path136" /></clipPath><linearGradient
       x1="0"
       y1="0"
       x2="1"
       y2="0"
       gradientUnits="userSpaceOnUse"
       gradientTransform="matrix(-241.97,0,0,-241.97,438.344,299.986)"
       spreadMethod="pad"
       id="linearGradient148"><stop
         style="stop-opacity:1;stop-color:#ccb300"
         offset="0"
         id="stop140" /><stop
         style="stop-opacity:1;stop-color:#cc9700"
         offset="0.4087"
         id="stop142" /><stop
         style="stop-opacity:1;stop-color:#cc8400"
         offset="0.7754"
         id="stop144" /><stop
         style="stop-opacity:1;stop-color:#cc7d00"
         offset="1"
         id="stop146" /></linearGradient><clipPath
       clipPathUnits="userSpaceOnUse"
       id="clipPath158"><path
         d="m 213.938,171.387 c -3.461,0 -6.485,1.129 -8.84,3.254 l -0.004,-0.004 c -0.008,0.008 -0.02,0.019 -0.031,0.027 l -0.645,0.629 c -0.02,0.02 -0.039,0.043 -0.063,0.066 l 0.743,0.743 c 2.355,-2.125 5.375,-3.254 8.836,-3.25 3.382,0 7.187,1.078 11.203,3.355 l 145.152,82.473 0.93,-0.93 -0.942,-0.535 -145.14,-82.469 c -3.66,-2.074 -7.141,-3.156 -10.285,-3.336 -0.309,-0.015 -0.614,-0.023 -0.914,-0.023"
         id="path156" /></clipPath><linearGradient
       x1="0"
       y1="0"
       x2="1"
       y2="0"
       gradientUnits="userSpaceOnUse"
       gradientTransform="matrix(-227.583,-227.583,227.583,-227.583,348.27,277.039)"
       spreadMethod="pad"
       id="linearGradient164"><stop
         style="stop-opacity:1;stop-color:#cc2e36"
         offset="0"
         id="stop160" /><stop
         style="stop-opacity:1;stop-color:#9c0e4e"
         offset="1"
         id="stop162" /></linearGradient><clipPath
       clipPathUnits="userSpaceOnUse"
       id="clipPath176"><path
         d="m 204.355,175.359 v 0 c -2.91,3.079 -4.628,7.856 -4.628,14.051 v 1.457 c 0,-6.191 1.718,-10.972 4.628,-14.051 l 0.743,-0.711 -0.743,-0.746"
         id="path174" /></clipPath><linearGradient
       x1="0"
       y1="0"
       x2="1"
       y2="0"
       gradientUnits="userSpaceOnUse"
       gradientTransform="matrix(-167.825,-167.825,167.825,-167.825,317.998,412.903)"
       spreadMethod="pad"
       id="linearGradient190"><stop
         style="stop-opacity:1;stop-color:#008de0"
         offset="0"
         id="stop178" /><stop
         style="stop-opacity:1;stop-color:#008de0"
         offset="0.00657445"
         id="stop180" /><stop
         style="stop-opacity:1;stop-color:#00a7e0"
         offset="0.2601"
         id="stop182" /><stop
         style="stop-opacity:1;stop-color:#00b8e0"
         offset="0.5122"
         id="stop184" /><stop
         style="stop-opacity:1;stop-color:#00c4e0"
         offset="0.7604"
         id="stop186" /><stop
         style="stop-opacity:1;stop-color:#00c7e0"
         offset="1"
         id="stop188" /></linearGradient><clipPath
       clipPathUnits="userSpaceOnUse"
       id="clipPath200"><path
         d="m 204.355,175.359 v 0 0 l 0.743,0.746 v -0.003 l -0.743,-0.743"
         id="path198" /></clipPath><linearGradient
       x1="0"
       y1="0"
       x2="1"
       y2="0"
       gradientUnits="userSpaceOnUse"
       gradientTransform="matrix(-227.583,-227.583,227.583,-227.583,348.27,277.039)"
       spreadMethod="pad"
       id="linearGradient206"><stop
         style="stop-opacity:1;stop-color:#e0333c"
         offset="0"
         id="stop202" /><stop
         style="stop-opacity:1;stop-color:#ab0f56"
         offset="1"
         id="stop204" /></linearGradient><clipPath
       clipPathUnits="userSpaceOnUse"
       id="clipPath218"><path
         d="m 371.219,257.75 v 0 l -0.93,0.93 49.859,28.332 c 6.332,3.597 9.887,8.238 10.481,12.965 0,-1.735 -0.387,-3.469 -1.156,-5.157 -1.551,-3.402 -4.66,-6.617 -9.325,-9.269 L 371.219,257.75"
         id="path216" /></clipPath><linearGradient
       x1="0"
       y1="0"
       x2="1"
       y2="0"
       gradientUnits="userSpaceOnUse"
       gradientTransform="matrix(-241.97,0,0,-241.97,438.344,299.986)"
       spreadMethod="pad"
       id="linearGradient228"><stop
         style="stop-opacity:1;stop-color:#e0c500"
         offset="0"
         id="stop220" /><stop
         style="stop-opacity:1;stop-color:#e0a600"
         offset="0.4087"
         id="stop222" /><stop
         style="stop-opacity:1;stop-color:#e09100"
         offset="0.7754"
         id="stop224" /><stop
         style="stop-opacity:1;stop-color:#e08900"
         offset="1"
         id="stop226" /></linearGradient><clipPath
       clipPathUnits="userSpaceOnUse"
       id="clipPath240"><path
         d="m 430.629,299.996 c -0.594,4.738 -4.149,9.375 -10.481,12.973 l -49.863,28.328 0.93,0.93 h 0.004 l 48.929,-27.801 c 6.981,-3.969 10.477,-9.199 10.481,-14.43"
         id="path238" /></clipPath><linearGradient
       x1="0"
       y1="0"
       x2="1"
       y2="0"
       gradientUnits="userSpaceOnUse"
       gradientTransform="matrix(-241.97,0,0,-241.97,438.344,299.986)"
       spreadMethod="pad"
       id="linearGradient250"><stop
         style="stop-opacity:1;stop-color:#ffe840"
         offset="0"
         id="stop242" /><stop
         style="stop-opacity:1;stop-color:#ffce40"
         offset="0.4087"
         id="stop244" /><stop
         style="stop-opacity:1;stop-color:#ffbc40"
         offset="0.7754"
         id="stop246" /><stop
         style="stop-opacity:1;stop-color:#ffb540"
         offset="1"
         id="stop248" /></linearGradient><clipPath
       clipPathUnits="userSpaceOnUse"
       id="clipPath262"><path
         d="m 199.727,409.105 v 1.461 c 0,0.02 0,0.036 0,0.055 0,0.004 0,0.008 0,0.012 0,0.551 0.015,1.09 0.043,1.613 0,0.008 0,0.016 0,0.024 0,0.007 0,0.015 0.003,0.023 0,0.016 0,0.031 0,0.047 0,0.004 0,0.008 0,0.012 0.301,5.332 1.957,9.492 4.582,12.269 v 0 0 l 0.731,-0.734 c -3.356,-3.028 -5.359,-8.078 -5.359,-14.782 m 5.339,16.215 0.028,0.028 c -0.008,-0.012 -0.02,-0.02 -0.028,-0.028"
         id="path260" /></clipPath><linearGradient
       x1="0"
       y1="0"
       x2="1"
       y2="0"
       gradientUnits="userSpaceOnUse"
       gradientTransform="matrix(-167.825,-167.825,167.825,-167.825,317.998,412.903)"
       spreadMethod="pad"
       id="linearGradient276"><stop
         style="stop-opacity:1;stop-color:#40b8ff"
         offset="0"
         id="stop264" /><stop
         style="stop-opacity:1;stop-color:#40b9ff"
         offset="0.00657445"
         id="stop266" /><stop
         style="stop-opacity:1;stop-color:#40ceff"
         offset="0.2601"
         id="stop268" /><stop
         style="stop-opacity:1;stop-color:#40ddff"
         offset="0.5122"
         id="stop270" /><stop
         style="stop-opacity:1;stop-color:#40e7ff"
         offset="0.7604"
         id="stop272" /><stop
         style="stop-opacity:1;stop-color:#40eaff"
         offset="1"
         id="stop274" /></linearGradient><clipPath
       clipPathUnits="userSpaceOnUse"
       id="clipPath288"><path
         d="M 370.285,341.297 225.137,423.77 c -4.024,2.281 -7.832,3.363 -11.223,3.363 -3.457,0 -6.473,-1.125 -8.828,-3.246 l -0.731,0.734 v 0 c 0.231,0.242 0.465,0.477 0.711,0.699 0.008,0.008 0.02,0.016 0.028,0.024 2.336,2.105 5.32,3.23 8.746,3.25 v 0 c 0.008,0 0.019,0 0.031,0 0.016,0 0.027,0 0.043,0 3.391,0 7.199,-1.082 11.223,-3.364 l 146.082,-83 -0.004,-0.003 -0.93,-0.93"
         id="path286" /></clipPath><linearGradient
       x1="0"
       y1="0"
       x2="1"
       y2="0"
       gradientUnits="userSpaceOnUse"
       gradientTransform="matrix(101.625,-101.625,101.625,101.625,172.973,498.238)"
       spreadMethod="pad"
       id="linearGradient300"><stop
         style="stop-opacity:1;stop-color:#65b895"
         offset="0"
         id="stop290" /><stop
         style="stop-opacity:1;stop-color:#62bd95"
         offset="0.0685"
         id="stop292" /><stop
         style="stop-opacity:1;stop-color:#50db97"
         offset="0.4762"
         id="stop294" /><stop
         style="stop-opacity:1;stop-color:#44ed98"
         offset="0.8009"
         id="stop296" /><stop
         style="stop-opacity:1;stop-color:#40f498"
         offset="1"
         id="stop298" /></linearGradient></defs><g
     id="g8"
     transform="matrix(1.3333333,0,0,-1.3333333,-52.9842,48.966695)"><g
       id="g48"
       transform="matrix(0.1,0,0,0.1,19.765451,-6.1343776)"><g
         id="g50"
         clip-path="url(#clipPath54)"><path
           d="m 205.098,176.105 -0.743,0.711 c -2.91,3.079 -4.628,7.86 -4.628,14.051 v -1.457 0 221.16 c 0,0.02 0,0.035 0,0.051 0,-0.019 0,-0.035 0,-0.055 v -1.461 c 0,6.704 2.003,11.754 5.359,14.782 L 328.984,299.992 205.098,176.105 m -5.371,234.528 c 0,0.551 0.015,1.086 0.043,1.613 -0.028,-0.523 -0.043,-1.062 -0.043,-1.613 m 0.043,1.637 c 0,0.007 0,0.015 0.003,0.023 -0.003,-0.008 -0.003,-0.016 -0.003,-0.023 m 0.003,0.07 c 0,0.004 0,0.008 0,0.012 0,-0.004 0,-0.008 0,-0.012"
           style="fill:url(#linearGradient68);fill-opacity:1;fill-rule:nonzero;stroke:none"
           id="path70" /></g></g><g
       id="g72"
       transform="matrix(0.1,0,0,0.1,19.765451,-6.1343776)"><g
         id="g74"
         clip-path="url(#clipPath78)"><path
           d="m 370.277,257.215 v 0 l 0.942,0.535 48.929,27.801 c 4.665,2.652 7.774,5.867 9.325,9.269 -1.547,-3.402 -4.657,-6.621 -9.325,-9.273 l -48.929,-27.801 -0.942,-0.531 m 0.012,1.465 -41.305,41.312 41.301,41.305 49.863,-28.328 c 6.332,-3.598 9.887,-8.235 10.481,-12.973 0,-0.004 0,-0.012 0,-0.019 -0.594,-4.727 -4.149,-9.368 -10.481,-12.965 L 370.289,258.68"
           style="fill:url(#linearGradient88);fill-opacity:1;fill-rule:nonzero;stroke:none"
           id="path90" /></g></g><g
       id="g92"
       transform="matrix(0.1,0,0,0.1,19.765451,-6.1343776)"><g
         id="g94"
         clip-path="url(#clipPath98)"><path
           d="m 213.93,171.387 c -3.461,0 -6.481,1.125 -8.836,3.25 l 0.004,0.004 c 2.355,-2.125 5.379,-3.254 8.84,-3.254 0.3,0 0.605,0.008 0.914,0.023 -0.313,-0.015 -0.622,-0.023 -0.922,-0.023 m 0.004,1.465 c -3.461,-0.004 -6.481,1.125 -8.836,3.25 v 0 0.003 l 123.886,123.887 41.305,-41.312 v 0 L 225.137,176.207 c -4.016,-2.277 -7.821,-3.355 -11.203,-3.355 m -8.871,1.812 c -0.219,0.199 -0.434,0.41 -0.645,0.629 l 0.645,-0.629"
           style="fill:url(#linearGradient104);fill-opacity:1;fill-rule:nonzero;stroke:none"
           id="path106" /></g></g><g
       id="g108"
       transform="matrix(0.1,0,0,0.1,19.765451,-6.1343776)"><g
         id="g110"
         clip-path="url(#clipPath114)"><path
           d="m 328.984,299.992 v 0 L 205.086,423.887 c 2.355,2.121 5.371,3.246 8.828,3.246 3.391,0 7.199,-1.082 11.223,-3.363 l 145.148,-82.473 -41.301,-41.305 m 42.235,42.238 -146.082,83 c -4.024,2.282 -7.832,3.364 -11.223,3.364 -0.016,0 -0.027,0 -0.043,0 0.02,0 0.035,0 0.059,0 3.383,0 7.187,-1.078 11.207,-3.36 L 371.219,342.23 M 213.84,428.594 v 0 0"
           style="fill:url(#linearGradient126);fill-opacity:1;fill-rule:nonzero;stroke:none"
           id="path128" /></g></g><path
       d="m 41.250651,11.006622 c 0.3144,0.018 0.6625,0.1262 1.0285,0.3336 l 14.514,8.2469 v 0 l -14.514,-8.2469 c -0.3657,-0.2078 -0.7141,-0.3156 -1.0285,-0.3336 m -0.9758,0.3227 -0.0031,0.0027 c 0.0011,-8e-4 0.0023,-0.0019 0.0031,-0.0027 v 0 m -0.0676,0.0656 -0.0063,0.0062 v 4e-4 c 0.0024,-0.0023 0.0043,-0.0046 0.0063,-0.0066"
       style="fill:#000000;fill-opacity:1;fill-rule:nonzero;stroke:none;stroke-width:0.1"
       id="path130" /><g
       id="g132"
       transform="matrix(0.1,0,0,0.1,19.765451,-6.1343776)"><g
         id="g134"
         clip-path="url(#clipPath138)"><path
           d="m 370.277,257.215 v 0 l 0.942,0.535 -0.942,-0.535"
           style="fill:url(#linearGradient148);fill-opacity:1;fill-rule:nonzero;stroke:none"
           id="path150" /></g></g><g
       id="g152"
       transform="matrix(0.1,0,0,0.1,19.765451,-6.1343776)"><g
         id="g154"
         clip-path="url(#clipPath158)"><path
           d="m 213.938,171.387 c -3.461,0 -6.485,1.129 -8.84,3.254 l -0.004,-0.004 c -0.008,0.008 -0.02,0.019 -0.031,0.027 l -0.645,0.629 c -0.02,0.02 -0.039,0.043 -0.063,0.066 l 0.743,0.743 c 2.355,-2.125 5.375,-3.254 8.836,-3.25 3.382,0 7.187,1.078 11.203,3.355 l 145.152,82.473 0.93,-0.93 -0.942,-0.535 -145.14,-82.469 c -3.66,-2.074 -7.141,-3.156 -10.285,-3.336 -0.309,-0.015 -0.614,-0.023 -0.914,-0.023"
           style="fill:url(#linearGradient164);fill-opacity:1;fill-rule:nonzero;stroke:none"
           id="path166" /></g></g><path
       d="m 40.200951,11.401122 c -0.291,0.3079 -0.4628,0.786 -0.4628,1.4051 v 4e-4 c 0,-0.6195 0.1718,-1.0972 0.4628,-1.4051 v 0 0 -4e-4"
       style="fill:#000000;fill-opacity:1;fill-rule:nonzero;stroke:none;stroke-width:0.1"
       id="path168" /><g
       id="g170"
       transform="matrix(0.1,0,0,0.1,19.765451,-6.1343776)"><g
         id="g172"
         clip-path="url(#clipPath176)"><path
           d="m 204.355,175.359 v 0 c -2.91,3.079 -4.628,7.856 -4.628,14.051 v 1.457 c 0,-6.191 1.718,-10.972 4.628,-14.051 l 0.743,-0.711 -0.743,-0.746"
           style="fill:url(#linearGradient190);fill-opacity:1;fill-rule:nonzero;stroke:none"
           id="path192" /></g></g><g
       id="g194"
       transform="matrix(0.1,0,0,0.1,19.765451,-6.1343776)"><g
         id="g196"
         clip-path="url(#clipPath200)"><path
           d="m 204.355,175.359 v 0 0 l 0.743,0.746 v -0.003 l -0.743,-0.743"
           style="fill:url(#linearGradient206);fill-opacity:1;fill-rule:nonzero;stroke:none"
           id="path208" /></g></g><path
       d="m 62.712751,23.347622 c 0.0769,0.1688 0.1156,0.3422 0.1156,0.5157 0,3e-4 0,7e-4 0,7e-4 0,-0.1738 -0.0387,-0.3472 -0.1156,-0.5164"
       style="fill:#000000;fill-opacity:1;fill-rule:nonzero;stroke:none;stroke-width:0.1"
       id="path210" /><g
       id="g212"
       transform="matrix(0.1,0,0,0.1,19.765451,-6.1343776)"><g
         id="g214"
         clip-path="url(#clipPath218)"><path
           d="m 371.219,257.75 v 0 l -0.93,0.93 49.859,28.332 c 6.332,3.597 9.887,8.238 10.481,12.965 0,-1.735 -0.387,-3.469 -1.156,-5.157 -1.551,-3.402 -4.66,-6.617 -9.325,-9.269 L 371.219,257.75"
           style="fill:url(#linearGradient228);fill-opacity:1;fill-rule:nonzero;stroke:none"
           id="path230" /></g></g><path
       d="m 62.828351,23.864822 v 4e-4 c -4e-4,0.5231 -0.35,1.0461 -1.0481,1.443 l -4.8929,2.7801 h -4e-4 l 4e-4,3e-4 4.8929,-2.78 c 0.6989,-0.3969 1.0489,-0.9207 1.0481,-1.4438"
       style="fill:#404040;fill-opacity:1;fill-rule:nonzero;stroke:none;stroke-width:0.1"
       id="path232" /><g
       id="g234"
       transform="matrix(0.1,0,0,0.1,19.765451,-6.1343776)"><g
         id="g236"
         clip-path="url(#clipPath240)"><path
           d="m 430.629,299.996 c -0.594,4.738 -4.149,9.375 -10.481,12.973 l -49.863,28.328 0.93,0.93 h 0.004 l 48.929,-27.801 c 6.981,-3.969 10.477,-9.199 10.481,-14.43"
           style="fill:url(#linearGradient250);fill-opacity:1;fill-rule:nonzero;stroke:none"
           id="path252" /></g></g><path
       d="m 39.738151,34.927722 c 0,4e-4 0,8e-4 0,0.0012 0,-4e-4 0,-8e-4 0,-0.0012 m 0.0043,0.1625 c 0,8e-4 0,0.0016 0,0.0024 0,-8e-4 0,-0.0016 0,-0.0024 m 3e-4,0.0047 c 0,0.0016 0,0.0031 0,0.0047 0,-0.0016 0,-0.0031 0,-0.0047 m 0,0.0059 c 0.0579,1.0273 0.6165,1.6207 1.4067,1.6242 -0.3426,-0.002 -0.641,-0.1145 -0.8746,-0.325 v 4e-4 l -0.0028,-0.0028 c -0.0246,-0.0222 -0.048,-0.0457 -0.0711,-0.0699 v 0 c -0.2625,-0.2777 -0.4281,-0.6937 -0.4582,-1.2269"
       style="fill:#404040;fill-opacity:1;fill-rule:nonzero;stroke:none;stroke-width:0.1"
       id="path254" /><g
       id="g256"
       transform="matrix(0.1,0,0,0.1,19.765451,-6.1343776)"><g
         id="g258"
         clip-path="url(#clipPath262)"><path
           d="m 199.727,409.105 v 1.461 c 0,0.02 0,0.036 0,0.055 0,0.004 0,0.008 0,0.012 0,0.551 0.015,1.09 0.043,1.613 0,0.008 0,0.016 0,0.024 0,0.007 0,0.015 0.003,0.023 0,0.016 0,0.031 0,0.047 0,0.004 0,0.008 0,0.012 0.301,5.332 1.957,9.492 4.582,12.269 v 0 0 l 0.731,-0.734 c -3.356,-3.028 -5.359,-8.078 -5.359,-14.782 m 5.339,16.215 0.028,0.028 c -0.008,-0.012 -0.02,-0.02 -0.028,-0.028"
           style="fill:url(#linearGradient276);fill-opacity:1;fill-rule:nonzero;stroke:none"
           id="path278" /></g></g><path
       d="m 41.149451,36.725022 c 8e-4,0 0.0019,0 0.0031,0 -0.0012,0 -0.0023,0 -0.0031,0"
       style="fill:#404040;fill-opacity:1;fill-rule:nonzero;stroke:none;stroke-width:0.1"
       id="path280" /><g
       id="g282"
       transform="matrix(0.1,0,0,0.1,19.765451,-6.1343776)"><g
         id="g284"
         clip-path="url(#clipPath288)"><path
           d="M 370.285,341.297 225.137,423.77 c -4.024,2.281 -7.832,3.363 -11.223,3.363 -3.457,0 -6.473,-1.125 -8.828,-3.246 l -0.731,0.734 v 0 c 0.231,0.242 0.465,0.477 0.711,0.699 0.008,0.008 0.02,0.016 0.028,0.024 2.336,2.105 5.32,3.23 8.746,3.25 v 0 c 0.008,0 0.019,0 0.031,0 0.016,0 0.027,0 0.043,0 3.391,0 7.199,-1.082 11.223,-3.364 l 146.082,-83 -0.004,-0.003 -0.93,-0.93"
           style="fill:url(#linearGradient300);fill-opacity:1;fill-rule:nonzero;stroke:none"
           id="path302" /></g></g></g></svg>
