<?xml version="1.0" encoding="UTF-8"?>
<svg width="120mm" height="120.05mm" version="1.1" viewBox="0 0 120 120.05" xmlns="http://www.w3.org/2000/svg">
 <circle cx="60" cy="60" r="60" fill="#3580a2" stroke-width=".26458"/>
 <g transform="matrix(.26604 0 0 .26604 -9.1996 -9.1799)">
  <g transform="matrix(1.1 0 0 .44444 95.081 256.39)"></g>
  <g transform="translate(-605.52 -353.97)"></g>
  <g>
   <path d="m256.12 108c-1.6289-0.0251-3.2681 0.60356-4.5 1.75-14.885 13.816-35.05 32.519-53.438 49.781l-7.1248-7.031c-1.2643-1.6256-3.1471-2.7185-5.125-2.7188h-39.312c-3.5162 3.7e-4 -6.7184 3.4373-6.7188 7.2188v57.812l-44.125 42c-2.0307 1.927-2.8026 5.2761-1.8438 8 0.47943 1.3619 1.3867 2.5175 2.5 3.3438l43.469 43.5v78.188c-2e-5 4.4571 1.9994 8.4878 5.0625 11.094l94.176 83.708c116.69 11.521 214.61-68.482 239.35-168.2l-61.621-58.918c-0.21819-0.27933-0.46007-0.54276-0.71875-0.78125-15.193-14.035-128.19-121.26-155.72-147-1.1843-1.1021-2.7465-1.7268-4.3125-1.75z" color="#000000" fill="#000000" fill-opacity=".23529" style="text-decoration-line:none;text-indent:0;text-transform:none"/>
   <path d="m256.12 108c-1.6289-0.0251-3.2593 0.61399-4.4912 1.7604-16.371 15.195-39.24 36.371-58.973 54.957v-7.7188c-3.5e-4 -3.7814-3.1995-7.2218-6.7157-7.2222h-39.329c-3.5162 3.7e-4 -6.7154 3.4408-6.7157 7.2222v57.8l-44.135 42.024c-2.0307 1.927-2.7964 5.2494-1.8375 7.9732 0.95886 2.7239 3.5784 4.668 6.2867 4.6656h39.686l-4.9e-4 120.39c-3e-5 7.7353 6.0131 14.151 13.18 14.151h65.688c3.5162-3.7e-4 6.7154-3.4408 6.7157-7.2222v-66.444c0-3.4089 1.3649-5.7778 5.0998-5.7778h50.809c2.0904 0 2.9276 0.64433 3.7356 1.6476 0.80799 1.0032 1.3641 2.6396 1.3641 4.1302v66.444c3.5e-4 3.7814 3.1995 7.2218 6.7158 7.2222h65.709c7.1666 0 13.159-6.4439 13.159-14.151v-120.39h39.686c2.7258 6e-3 5.3627-1.961 6.3114-4.7092 0.94864-2.7482 0.14432-6.0895-1.9251-7.9974-15.193-14.035-128.19-121.26-155.72-146.99-1.1843-1.1021-2.7363-1.7372-4.3023-1.7604z" color="#000000" fill="#ffffff" style="text-decoration-line:none;text-indent:0;text-transform:none"/>
   <path d="m256.13 108c-1.6289-0.0251-3.2596 0.61399-4.4915 1.7604-52.442 48.358-102.59 96.331-155.87 147.06-2.0307 1.927-2.7964 5.2494-1.8375 7.9732 0.95886 2.7239 3.5784 4.668 6.2867 4.6656h19.686l136.22-127.46 135.95 127.46h19.686c2.7258 6e-3 5.3627-1.961 6.3114-4.7092 0.94864-2.7482 0.14432-6.0895-1.9251-7.9974-15.193-14.035-128.19-121.26-155.72-146.99-1.1843-1.1021-2.736-1.7372-4.3019-1.7604z" color="#000000" fill="#ffffff" style="text-decoration-line:none;text-indent:0;text-transform:none"/>
  </g>
 </g>
 <g transform="matrix(0 -.26458 .26458 0 139.96 164.7)" fill="#3580a2">
  <g transform="matrix(1.1 0 0 .44444 95.081 256.39)"></g>
  <path d="m365.51-324.05c-5.89 0.2101-11.535 3.6119-14.492 8.7096-3.3964 5.6057-3.2733 13.104 0.31466 18.591 3.3057 5.3082 9.5862 8.5483 15.825 8.2022 5.8689-0.24008 11.489-3.6065 14.445-8.6875 3.3994-5.5912 3.2937-13.076-0.26808-18.566-3.3085-5.3311-9.5588-8.5899-15.824-8.249z" color="#000000"/>
  <g transform="translate(-605.52 -353.97)"></g>
  <g transform="translate(-605.52 -353.97)"></g>
  <path d="m395.4-357.38c-3.6068 0.22217-6.4922 3.2257-7.5605 6.5292-1.3902 4.0896-0.3767 8.9453 2.7224 11.999 9.2307 10.776 13.122 25.661 11.108 39.633-1.3484 9.707-5.5878 19.016-12.176 26.288-3.5944 4.6037-2.9431 12.114 1.771 15.719 2.5507 1.9804 6.4019 2.0424 8.9501 0.0226 1.6677-1.29 2.8105-2.9788 4.1249-4.5575 0.67673-0.88255 1.3991-1.8395 1.9555-2.6506 5.5416-7.8894 9.2943-16.977 11.261-26.4 0.11478-0.60235 0.30704-1.5301 0.42895-2.2608 0.60475-3.3487 0.96977-6.92 1.1101-10.208 0.14974-3.7127 0.0344-7.6076-0.35547-11.379-0.0799-0.66531-0.18375-1.6528-0.29683-2.4387-1.9032-13.94-7.7175-27.479-17.229-37.925-1.5235-1.5109-3.6425-2.4915-5.8141-2.3707z" color="#000000" stroke-opacity="0" style="paint-order:normal;text-decoration-line:none;text-indent:0;text-transform:none"/>
  <path d="m420.6-392.71c-3.5728 0.22189-6.4301 3.144-7.5421 6.4012-1.506 4.1593-0.48374 9.1563 2.7083 12.262 13.144 15.119 21.247 34.353 23.683 54.186 2.836 22.734-1.5893 46.456-13.141 66.306-3.2826 5.7346-7.2663 11.038-11.575 16.036-3.47 4.662-2.7384 12.099 1.9751 15.664 2.5786 1.9728 6.4499 2.0158 9.0028-0.0275 1.9765-1.5796 3.3979-3.7149 5.0392-5.616 1.3224-1.6686 2.5781-3.3312 3.7487-4.9864 3.4782-4.8812 6.6609-10.209 9.3742-15.638 3.7272-7.4351 6.708-15.357 8.8683-23.319 2.745-10.142 4.2653-20.61 4.5703-31.111 0.68744-24.047-5.0833-48.588-17.389-69.418-3.93-6.6433-8.4696-12.95-13.7-18.631-1.5068-1.3914-3.5539-2.2438-5.6211-2.1094z" color="#000000" stroke-opacity="0" style="paint-order:normal;text-decoration-line:none;text-indent:0;text-transform:none"/>
 </g>
</svg>
